<svg class="border shadow-md" viewBox="0 0 1058.64 595.485" xmlns="http://www.w3.org/2000/svg" preserveAspectRatio="none" style="width: 1058.64px; height: 595.485px;"><rect class="bg" id="bg" x="0" y="0" width="1058.64" height="595.485" fill="#ffffff"/><path d="M 0 -74.435625 L 0 -74.44&#10;                L 88.22 -23.44&#10;                L 264.66 -74.44 L 264.66 -74.44&#10;                L 394.66 -27.44&#10;                L 529.32 -74.44 L 529.32 -74.44&#10;                L 656.32 -37.22&#10;                L 793.98 -74.44 L 793.98 -74.44&#10;                L 970.98 -37.22&#10;                L 1058.64 -74.44 L 1058.64 -74.44&#10;                L 1179.64 -37.22&#10;                L 1323.3000000000002 -74.44  V 595.49 H 0 V -74.44 Z" fill="#FF7F50"/><path d="M 0 0 L 0 0.00&#10;                L 177.00 57.00&#10;                L 264.66 0.00 L 264.66 0.00&#10;                L 437.66 60.00&#10;                L 529.32 0.00 L 529.32 0.00&#10;                L 663.32 37.22&#10;                L 793.98 0.00 L 793.98 0.00&#10;                L 882.20 73.00&#10;                L 1058.64 0.00 L 1058.64 0.00&#10;                L 1146.86 37.22&#10;                L 1323.3000000000002 0.00  V 595.49 H 0 V 0.00 Z" fill="#ea8258"/><path d="M 0 74.435625 L 0 74.44&#10;                L 88.22 135.44&#10;                L 264.66 74.44 L 264.66 74.44&#10;                L 352.88 126.44&#10;                L 529.32 74.44 L 529.32 74.44&#10;                L 617.54 142.44&#10;                L 793.98 74.44 L 793.98 74.44&#10;                L 988.98 111.65&#10;                L 1058.64 74.44 L 1058.64 74.44&#10;                L 1222.64 111.65&#10;                L 1323.3000000000002 74.44  V 595.49 H 0 V 74.44 Z" fill="#d58560"/><path d="M 0 148.87125 L 0 148.87&#10;                L 88.22 194.87&#10;                L 264.66 148.87 L 264.66 148.87&#10;                L 352.88 186.09&#10;                L 529.32 148.87 L 529.32 148.87&#10;                L 670.32 221.87&#10;                L 793.98 148.87 L 793.98 148.87&#10;                L 925.98 186.09&#10;                L 1058.64 148.87 L 1058.64 148.87&#10;                L 1146.86 186.09&#10;                L 1323.3000000000002 148.87  V 595.49 H 0 V 148.87 Z" fill="#c08868"/><path d="M 0 223.306875 L 0 223.31&#10;                L 88.22 296.31&#10;                L 264.66 223.31 L 264.66 223.31&#10;                L 447.66 268.31&#10;                L 529.32 223.31 L 529.32 223.31&#10;                L 617.54 266.31&#10;                L 793.98 223.31 L 793.98 223.31&#10;                L 926.98 260.52&#10;                L 1058.64 223.31 L 1058.64 223.31&#10;                L 1187.64 263.31&#10;                L 1323.3000000000002 223.31  V 595.49 H 0 V 223.31 Z" fill="#ab8b70"/><path d="M 0 297.7425 L 0 297.74&#10;                L 88.22 344.74&#10;                L 264.66 297.74 L 264.66 297.74&#10;                L 352.88 361.74&#10;                L 529.32 297.74 L 529.32 297.74&#10;                L 702.32 342.74&#10;                L 793.98 297.74 L 793.98 297.74&#10;                L 894.98 336.74&#10;                L 1058.64 297.74 L 1058.64 297.74&#10;                L 1210.64 334.96&#10;                L 1323.3000000000002 297.74  V 595.49 H 0 V 297.74 Z" fill="#968e78"/><path d="M 0 372.178125 L 0 372.18&#10;                L 92.00 409.40&#10;                L 264.66 372.18 L 264.66 372.18&#10;                L 412.66 415.18&#10;                L 529.32 372.18 L 529.32 372.18&#10;                L 695.32 409.40&#10;                L 793.98 372.18 L 793.98 372.18&#10;                L 882.20 429.18&#10;                L 1058.64 372.18 L 1058.64 372.18&#10;                L 1171.64 445.18&#10;                L 1323.3000000000002 372.18  V 595.49 H 0 V 372.18 Z" fill="#819180"/><path d="M 0 446.61375 L 0 446.61&#10;                L 88.22 483.83&#10;                L 264.66 446.61 L 264.66 446.61&#10;                L 383.66 500.61&#10;                L 529.32 446.61 L 529.32 446.61&#10;                L 668.32 517.61&#10;                L 793.98 446.61 L 793.98 446.61&#10;                L 925.98 495.61&#10;                L 1058.64 446.61 L 1058.64 446.61&#10;                L 1238.64 516.61&#10;                L 1323.3000000000002 446.61  V 595.49 H 0 V 446.61 Z" fill="#6c9488"/><path d="M 0 521.049375 L 0 521.05&#10;                L 88.22 588.05&#10;                L 264.66 521.05 L 264.66 521.05&#10;                L 410.66 558.27&#10;                L 529.32 521.05 L 529.32 521.05&#10;                L 617.54 561.05&#10;                L 793.98 521.05 L 793.98 521.05&#10;                L 906.98 566.05&#10;                L 1058.64 521.05 L 1058.64 521.05&#10;                L 1226.64 579.05&#10;                L 1323.3000000000002 521.05  V 595.49 H 0 V 521.05 Z" fill="#579790"/></svg>